<svg id="Layer_1" xmlns="http://www.w3.org/2000/svg" viewBox="0 0 327.8 50"><style>.st0{fill:#f84147}.st1{fill:#fff}</style><path class="st0" d="M94.8 9.9c.5 3-1.1 5.2-3 7.2-4.6 3.7-9 6.7-14.3 8.6.9.4 2 .6 2.9 1 2.2.8 4.6 2.1 5.3 4.5.9 2.4-1.5 6.8-8.9 10-1.7.9-13.4 5.8-18.5 7.2-1.4.5-1.7.9-1.6 1.5-2 .1-3-1.1-3.5-2-.9-2.1-.1-4.6 1.4-6.1 1.7-2.1 4.2-2.3 6.5-3.1 4.6-1.4 9.2-3.1 13.6-5.1 3.1-1.7.1-3-.4-3.1-4.8-1-8.1.1-9-.6-1.3-1.1-1.7-5.4-.2-6.7 1.6-1.7 3.7-2.4 5.6-3.6 4.6-2.5 9.5-4.2 14-7 .5-.5 1.5-.7 1.4-1.4-1-1.2-7.6.4-8.3.4-2.7.4-12.6 3.2-14 3.4-.6.4.4 1.2.5 2.9.2 1.8.3 2.9-.5 4.7-.7 1.8-2 3.4-2.8 5.3-3.1 4.9-6.3 9.8-9.6 14.5-.1.2-.5.5-.8.6-1.6.2-3.1-.2-3.9-1.6-2.6-5 2.1-8.9 4.5-12.7 2.8-3.9 4.9-8.1 7.3-12.2-.9-.7-1.7-1.6-1.6-2.9.3-3.2 2-6.4 5.2-7.5 7.2-2.5 15.5-3.3 23.4-2.5 3 .3 8.4 1.7 9.3 6.3z"/><path class="st0" d="M56.9 5.7c.1.6-.2 2-1 2.4-.5.3-1.3.4-1.8.3-.4-.1-1.4-.4-1.4-.4-5.1-.7-9.2.6-13.9 1.6-5.1.9-9.8 2.7-14.8 3.8.6.8.9 1.9.5 2.9-1 1.1-2 2.2-3 3.2 8-1.3 20.3-3.4 26-2.6 3.3.8 4.7 3.7 4.6 4.8.1 2.4-3.2 3.3-15.6 4.6-9.2 1.7-20 3.8-22.5 4.3-.9 1.1-2.1 2.7-1.8 4 1.9 2 12-.8 18.7-.6 7.2.1 8.5 5 6.7 6.7-.6.7-2.5.6-6 1.2-5.3 1-13.1 2.3-18.3 1.8-1.6-.2-2.8-.9-4.1-1.7-3-2.2-3.5-5.8-3.3-9.1-.1-.5.7-1 .1-1.4-1.4-.1-3.1-.1-4.3-1-.7-.4-1.5-1-1.7-2 .1-1.7.1-3.6 1.5-4.7 3.2.6 6.4-.4 9.4-1.5 1.6-2.2 3.3-4.3 5-6.4-.7-.8-1.6.2-2.5.2-2.5.5-5.9 1.3-7.6-1.3-1.1-1.4-1.1-3.7-.5-5.3.2-.4.6-1 1-.9.6 1.1 2.4.7 3.4.6 15.8-5.8 34-11 41.4-8.8 3.6 1.2 5.5 3.6 5.8 5.3z"/><path class="st1" d="M93.5 32.8c1.9-4.9 4.2-11.1 4.2-11.1 4.1-10.6 12-13.6 26.4-13.6 14.6 0 18.9 4.4 16.2 11.8-.4 1-.8 2-1.2 3.1H125s.5-1.3 1.2-3.1c1.4-3.8.6-6-3.9-6-4.6 0-7.5 2.3-9.7 8.2 0 0-3.4 8.7-5.1 13.3-1.6 4.1.1 6.4 4.1 6.4 3.1 0 6.7-1.6 8.3-6.1.7-2 .9-2.3.9-2.3H115l2-5.2h20.5l-7.1 18.6h-10.8l-.3-2.3s-3.2 3-12.7 3C94.8 47.4 90 42 93.5 32.8zm201.4 5.5c.9-2.3.6-4.2-4.7-6.1-4.3-1.6-6.9-2.4-9.5-4.4-2.9-2.3-3-5.8-1.7-9 2.4-6.4 10.4-10.5 22.5-10.5 12 0 16.3 4.3 15.3 9.4-.2 1-.5 1.6-.5 1.6H304s.3-.4.5-1.4c.4-2.1-1-3.9-4.4-3.9-3.6 0-5.3 1.5-5.8 3.2-.7 2.3.7 3.6 4.5 4.9 7.2 2.4 8.9 3.4 10.5 4.9 1.9 1.9 2.8 5.1 1.4 8.8-3 7.7-11.8 11.8-24.5 11.8-10.9-.1-16.7-3.7-14.8-10.2.2-.5.7-1.6.7-1.6H284s-.2.4-.4.9c-1 2.7.5 5.1 5.3 5.1 3-.2 5.1-1.4 6-3.5zM241.7 9.1c1.5.5 5.3 2.3 1.6 11.8-3.7 9.6-9.9 25.8-9.9 25.8H266l2.1-5.5h-18l4.4-11.4h14.2l2.1-5.4h-14.2l3.9-10h17.9l2.1-5.4-38.8.1zm-56.4 0c1.2.4 5.9 2.1 2 11.7l-10.5 25.8h6.1l12.3-30.5-3.2 30.5h10l20.1-30.5L211 46.7h14.7l13.7-37.8h-17.8L207 31.2l2.4-22.3h-23.9c-.1 0-.2.2-.2.2zm-33.1-.2l-.1.2s6 1.7.1 10.1c-6.3 8.9-19.2 27.5-19.2 27.5h7.1l6-8.8H161l-.7 8.8H174l2.9-37.8h-24.7zm9.1 24.1h-11.9L163 13l-1.7 20z"/></svg>